<svg width="60" height="60" viewBox="0 0 60 60" fill="none" xmlns="http://www.w3.org/2000/svg">
<path d="M52.5 3.75C53.4946 3.75 54.4484 4.14509 55.1516 4.84835C55.8549 5.55161 56.25 6.50544 56.25 7.5V37.5C56.25 38.4946 55.8549 39.4484 55.1516 40.1516C54.4484 40.8549 53.4946 41.25 52.5 41.25H16.5525C14.5635 41.2504 12.6562 42.0409 11.25 43.4475L3.75 50.9475V7.5C3.75 6.50544 4.14509 5.55161 4.84835 4.84835C5.55161 4.14509 6.50544 3.75 7.5 3.75H52.5ZM7.5 0C5.51088 0 3.60322 0.790176 2.1967 2.1967C0.790176 3.60322 0 5.51088 0 7.5L0 55.4737C7.88058e-05 55.8448 0.110222 56.2074 0.31649 56.5158C0.522757 56.8242 0.815876 57.0644 1.15875 57.2062C1.50162 57.3479 1.87883 57.3847 2.24264 57.312C2.60644 57.2392 2.94049 57.0602 3.2025 56.7975L13.9012 46.0987C14.6043 45.3954 15.558 45.0002 16.5525 45H52.5C54.4891 45 56.3968 44.2098 57.8033 42.8033C59.2098 41.3968 60 39.4891 60 37.5V7.5C60 5.51088 59.2098 3.60322 57.8033 2.1967C56.3968 0.790176 54.4891 0 52.5 0L7.5 0Z" fill="#002D16"/>
</svg>
