<svg width="100" height="100" viewBox="0 0 100 100" fill="none" xmlns="http://www.w3.org/2000/svg">
<g clip-path="url(#clip0_23_672)">
<path d="M12.5 12.5C9.18479 12.5 6.00537 13.817 3.66117 16.1612C1.31696 18.5054 0 21.6848 0 25L0 31.25C0 34.5652 1.31696 37.7446 3.66117 40.0888C6.00537 42.433 9.18479 43.75 12.5 43.75H46.875V62.5C44.3886 62.5 42.004 63.4877 40.2459 65.2459C38.4877 67.004 37.5 69.3886 37.5 71.875H3.125C2.2962 71.875 1.50134 72.2042 0.915291 72.7903C0.32924 73.3763 0 74.1712 0 75C0 75.8288 0.32924 76.6237 0.915291 77.2097C1.50134 77.7958 2.2962 78.125 3.125 78.125H37.5C37.5 80.6114 38.4877 82.996 40.2459 84.7541C42.004 86.5123 44.3886 87.5 46.875 87.5H53.125C55.6114 87.5 57.996 86.5123 59.7541 84.7541C61.5123 82.996 62.5 80.6114 62.5 78.125H96.875C97.7038 78.125 98.4987 77.7958 99.0847 77.2097C99.6708 76.6237 100 75.8288 100 75C100 74.1712 99.6708 73.3763 99.0847 72.7903C98.4987 72.2042 97.7038 71.875 96.875 71.875H62.5C62.5 69.3886 61.5123 67.004 59.7541 65.2459C57.996 63.4877 55.6114 62.5 53.125 62.5V43.75H87.5C90.8152 43.75 93.9946 42.433 96.3388 40.0888C98.683 37.7446 100 34.5652 100 31.25V25C100 21.6848 98.683 18.5054 96.3388 16.1612C93.9946 13.817 90.8152 12.5 87.5 12.5H12.5ZM15.625 31.25C14.7962 31.25 14.0013 30.9208 13.4153 30.3347C12.8292 29.7487 12.5 28.9538 12.5 28.125C12.5 27.2962 12.8292 26.5013 13.4153 25.9153C14.0013 25.3292 14.7962 25 15.625 25C16.4538 25 17.2487 25.3292 17.8347 25.9153C18.4208 26.5013 18.75 27.2962 18.75 28.125C18.75 28.9538 18.4208 29.7487 17.8347 30.3347C17.2487 30.9208 16.4538 31.25 15.625 31.25ZM28.125 31.25C27.2962 31.25 26.5013 30.9208 25.9153 30.3347C25.3292 29.7487 25 28.9538 25 28.125C25 27.2962 25.3292 26.5013 25.9153 25.9153C26.5013 25.3292 27.2962 25 28.125 25C28.9538 25 29.7487 25.3292 30.3347 25.9153C30.9208 26.5013 31.25 27.2962 31.25 28.125C31.25 28.9538 30.9208 29.7487 30.3347 30.3347C29.7487 30.9208 28.9538 31.25 28.125 31.25Z" fill="#002D16"/>
</g>
<defs>
<clipPath id="clip0_23_672">
<rect width="100" height="100" fill="white"/>
</clipPath>
</defs>
</svg>
